<mxfile host="app.diagrams.net" modified="2023-04-30T19:06:38.233Z" agent="Mozilla/5.0 (Macintosh; Intel Mac OS X 10_15_7) AppleWebKit/537.36 (KHTML, like Gecko) Chrome/112.0.0.0 Safari/537.36" etag="zd09gCmUm2qeOWZBg35p" version="21.2.3" type="github">
  <diagram name="Page-1" id="2YBvvXClWsGukQMizWep">
    <mxGraphModel dx="2089" dy="629" grid="1" gridSize="10" guides="1" tooltips="1" connect="1" arrows="1" fold="1" page="1" pageScale="1" pageWidth="850" pageHeight="1100" math="0" shadow="0">
      <root>
        <mxCell id="0" />
        <mxCell id="1" parent="0" />
        <mxCell id="aM9ryv3xv72pqoxQDRHE-1" value="executer: executerFacade" style="shape=umlLifeline;perimeter=lifelinePerimeter;whiteSpace=wrap;html=1;container=0;dropTarget=0;collapsible=0;recursiveResize=0;outlineConnect=0;portConstraint=eastwest;newEdgeStyle={&quot;edgeStyle&quot;:&quot;elbowEdgeStyle&quot;,&quot;elbow&quot;:&quot;vertical&quot;,&quot;curved&quot;:0,&quot;rounded&quot;:0};" parent="1" vertex="1">
          <mxGeometry y="40" width="100" height="1610" as="geometry" />
        </mxCell>
        <mxCell id="aM9ryv3xv72pqoxQDRHE-2" value="" style="html=1;points=[];perimeter=orthogonalPerimeter;outlineConnect=0;targetShapes=umlLifeline;portConstraint=eastwest;newEdgeStyle={&quot;edgeStyle&quot;:&quot;elbowEdgeStyle&quot;,&quot;elbow&quot;:&quot;vertical&quot;,&quot;curved&quot;:0,&quot;rounded&quot;:0};" parent="aM9ryv3xv72pqoxQDRHE-1" vertex="1">
          <mxGeometry x="45" y="70" width="10" height="1520" as="geometry" />
        </mxCell>
        <mxCell id="aM9ryv3xv72pqoxQDRHE-3" value="removeItemFromShipment(item,amount)" style="html=1;verticalAlign=bottom;startArrow=oval;endArrow=block;startSize=8;edgeStyle=elbowEdgeStyle;elbow=vertical;curved=0;rounded=0;" parent="aM9ryv3xv72pqoxQDRHE-1" target="aM9ryv3xv72pqoxQDRHE-2" edge="1">
          <mxGeometry relative="1" as="geometry">
            <mxPoint x="-150" y="70" as="sourcePoint" />
          </mxGeometry>
        </mxCell>
        <mxCell id="aM9ryv3xv72pqoxQDRHE-5" value=":Shipment" style="shape=umlLifeline;perimeter=lifelinePerimeter;whiteSpace=wrap;html=1;container=0;dropTarget=0;collapsible=0;recursiveResize=0;outlineConnect=0;portConstraint=eastwest;newEdgeStyle={&quot;edgeStyle&quot;:&quot;elbowEdgeStyle&quot;,&quot;elbow&quot;:&quot;vertical&quot;,&quot;curved&quot;:0,&quot;rounded&quot;:0};" parent="1" vertex="1">
          <mxGeometry x="240" y="40" width="100" height="1620" as="geometry" />
        </mxCell>
        <mxCell id="aM9ryv3xv72pqoxQDRHE-6" value="" style="html=1;points=[];perimeter=orthogonalPerimeter;outlineConnect=0;targetShapes=umlLifeline;portConstraint=eastwest;newEdgeStyle={&quot;edgeStyle&quot;:&quot;elbowEdgeStyle&quot;,&quot;elbow&quot;:&quot;vertical&quot;,&quot;curved&quot;:0,&quot;rounded&quot;:0};" parent="aM9ryv3xv72pqoxQDRHE-5" vertex="1">
          <mxGeometry x="45" y="80" width="10" height="1500" as="geometry" />
        </mxCell>
        <mxCell id="aM9ryv3xv72pqoxQDRHE-7" value="GetCurrentSite()" style="html=1;verticalAlign=bottom;endArrow=block;edgeStyle=elbowEdgeStyle;elbow=vertical;curved=0;rounded=0;" parent="1" source="aM9ryv3xv72pqoxQDRHE-2" target="aM9ryv3xv72pqoxQDRHE-6" edge="1">
          <mxGeometry relative="1" as="geometry">
            <mxPoint x="195" y="130" as="sourcePoint" />
            <Array as="points">
              <mxPoint x="180" y="120" />
            </Array>
          </mxGeometry>
        </mxCell>
        <mxCell id="aM9ryv3xv72pqoxQDRHE-8" value="current_site" style="html=1;verticalAlign=bottom;endArrow=open;dashed=1;endSize=8;edgeStyle=elbowEdgeStyle;elbow=vertical;curved=0;rounded=0;" parent="1" source="aM9ryv3xv72pqoxQDRHE-6" target="aM9ryv3xv72pqoxQDRHE-2" edge="1">
          <mxGeometry relative="1" as="geometry">
            <mxPoint x="195" y="205" as="targetPoint" />
            <Array as="points">
              <mxPoint x="90" y="160" />
              <mxPoint x="130" y="170" />
              <mxPoint x="190" y="280" />
            </Array>
          </mxGeometry>
        </mxCell>
        <mxCell id="FTDdUt2VMNyNh04fNACb-4" value="GetItemsBySite(currentSite)" style="html=1;verticalAlign=bottom;endArrow=block;edgeStyle=elbowEdgeStyle;elbow=horizontal;curved=0;rounded=0;" edge="1" parent="1">
          <mxGeometry relative="1" as="geometry">
            <mxPoint x="60" y="200" as="sourcePoint" />
            <Array as="points">
              <mxPoint x="185" y="200" />
            </Array>
            <mxPoint x="280" y="200" as="targetPoint" />
          </mxGeometry>
        </mxCell>
        <mxCell id="FTDdUt2VMNyNh04fNACb-5" value=":ShippingPair" style="shape=umlLifeline;perimeter=lifelinePerimeter;whiteSpace=wrap;html=1;container=0;dropTarget=0;collapsible=0;recursiveResize=0;outlineConnect=0;portConstraint=eastwest;newEdgeStyle={&quot;edgeStyle&quot;:&quot;elbowEdgeStyle&quot;,&quot;elbow&quot;:&quot;vertical&quot;,&quot;curved&quot;:0,&quot;rounded&quot;:0};" vertex="1" parent="1">
          <mxGeometry x="440" y="40" width="100" height="1620" as="geometry" />
        </mxCell>
        <mxCell id="FTDdUt2VMNyNh04fNACb-6" value="" style="html=1;points=[];perimeter=orthogonalPerimeter;outlineConnect=0;targetShapes=umlLifeline;portConstraint=eastwest;newEdgeStyle={&quot;edgeStyle&quot;:&quot;elbowEdgeStyle&quot;,&quot;elbow&quot;:&quot;vertical&quot;,&quot;curved&quot;:0,&quot;rounded&quot;:0};" vertex="1" parent="FTDdUt2VMNyNh04fNACb-5">
          <mxGeometry x="45" y="80" width="10" height="1500" as="geometry" />
        </mxCell>
        <mxCell id="FTDdUt2VMNyNh04fNACb-8" value="current_site_items" style="html=1;verticalAlign=bottom;endArrow=open;dashed=1;endSize=8;edgeStyle=elbowEdgeStyle;elbow=vertical;curved=0;rounded=0;" edge="1" parent="1" target="aM9ryv3xv72pqoxQDRHE-2">
          <mxGeometry x="0.0044" relative="1" as="geometry">
            <mxPoint x="60" y="230" as="targetPoint" />
            <Array as="points">
              <mxPoint x="180" y="240" />
              <mxPoint x="85" y="230" />
              <mxPoint x="125" y="240" />
              <mxPoint x="185" y="350" />
            </Array>
            <mxPoint x="280" y="240" as="sourcePoint" />
            <mxPoint as="offset" />
          </mxGeometry>
        </mxCell>
        <mxCell id="FTDdUt2VMNyNh04fNACb-9" value="alt" style="shape=umlFrame;whiteSpace=wrap;html=1;pointerEvents=0;" vertex="1" parent="1">
          <mxGeometry x="-30" y="250" width="840" height="1330" as="geometry" />
        </mxCell>
        <mxCell id="FTDdUt2VMNyNh04fNACb-10" value="if current_site_items is empty" style="html=1;whiteSpace=wrap;" vertex="1" parent="1">
          <mxGeometry x="-30" y="280" width="140" height="30" as="geometry" />
        </mxCell>
        <mxCell id="FTDdUt2VMNyNh04fNACb-12" value="" style="endArrow=classic;html=1;rounded=0;exitX=0.75;exitY=1;exitDx=0;exitDy=0;" edge="1" parent="1" source="FTDdUt2VMNyNh04fNACb-13">
          <mxGeometry width="50" height="50" relative="1" as="geometry">
            <mxPoint x="20" y="320" as="sourcePoint" />
            <mxPoint x="-140" y="320" as="targetPoint" />
          </mxGeometry>
        </mxCell>
        <mxCell id="FTDdUt2VMNyNh04fNACb-13" value="finish&amp;nbsp;" style="text;html=1;strokeColor=none;fillColor=none;align=center;verticalAlign=middle;whiteSpace=wrap;rounded=0;" vertex="1" parent="1">
          <mxGeometry x="-80" y="300" width="60" height="20" as="geometry" />
        </mxCell>
        <mxCell id="FTDdUt2VMNyNh04fNACb-17" value="getkey()" style="html=1;verticalAlign=bottom;endArrow=block;edgeStyle=elbowEdgeStyle;elbow=horizontal;curved=0;rounded=0;" edge="1" parent="1" target="FTDdUt2VMNyNh04fNACb-6">
          <mxGeometry relative="1" as="geometry">
            <mxPoint x="60" y="370" as="sourcePoint" />
            <Array as="points">
              <mxPoint x="175" y="370" />
            </Array>
            <mxPoint x="270" y="370" as="targetPoint" />
          </mxGeometry>
        </mxCell>
        <mxCell id="FTDdUt2VMNyNh04fNACb-18" value="item" style="html=1;verticalAlign=bottom;endArrow=open;dashed=1;endSize=8;edgeStyle=elbowEdgeStyle;elbow=vertical;curved=0;rounded=0;" edge="1" parent="1" source="FTDdUt2VMNyNh04fNACb-6">
          <mxGeometry x="0.0044" relative="1" as="geometry">
            <mxPoint x="60" y="410" as="targetPoint" />
            <Array as="points">
              <mxPoint x="175" y="410" />
              <mxPoint x="80" y="400" />
              <mxPoint x="120" y="410" />
              <mxPoint x="180" y="520" />
            </Array>
            <mxPoint x="275" y="410" as="sourcePoint" />
            <mxPoint as="offset" />
          </mxGeometry>
        </mxCell>
        <mxCell id="FTDdUt2VMNyNh04fNACb-20" value="alt" style="shape=umlFrame;whiteSpace=wrap;html=1;pointerEvents=0;" vertex="1" parent="1">
          <mxGeometry x="-10" y="420" width="790" height="1080" as="geometry" />
        </mxCell>
        <mxCell id="FTDdUt2VMNyNh04fNACb-21" value="if key is the desired item" style="html=1;whiteSpace=wrap;" vertex="1" parent="1">
          <mxGeometry x="-10" y="450" width="140" height="30" as="geometry" />
        </mxCell>
        <mxCell id="FTDdUt2VMNyNh04fNACb-22" value="getValue()" style="html=1;verticalAlign=bottom;endArrow=block;edgeStyle=elbowEdgeStyle;elbow=horizontal;curved=0;rounded=0;" edge="1" parent="1">
          <mxGeometry relative="1" as="geometry">
            <mxPoint x="60" y="500" as="sourcePoint" />
            <Array as="points">
              <mxPoint x="175" y="500" />
            </Array>
            <mxPoint x="485" y="500" as="targetPoint" />
          </mxGeometry>
        </mxCell>
        <mxCell id="FTDdUt2VMNyNh04fNACb-23" value="item_amount" style="html=1;verticalAlign=bottom;endArrow=open;dashed=1;endSize=8;edgeStyle=elbowEdgeStyle;elbow=vertical;curved=0;rounded=0;" edge="1" parent="1">
          <mxGeometry x="0.0044" relative="1" as="geometry">
            <mxPoint x="60" y="540" as="targetPoint" />
            <Array as="points">
              <mxPoint x="175" y="540" />
              <mxPoint x="80" y="530" />
              <mxPoint x="120" y="540" />
              <mxPoint x="180" y="650" />
            </Array>
            <mxPoint x="485" y="540" as="sourcePoint" />
            <mxPoint as="offset" />
          </mxGeometry>
        </mxCell>
        <mxCell id="FTDdUt2VMNyNh04fNACb-24" value="alt" style="shape=umlFrame;whiteSpace=wrap;html=1;pointerEvents=0;" vertex="1" parent="1">
          <mxGeometry x="10" y="550" width="750" height="560" as="geometry" />
        </mxCell>
        <mxCell id="FTDdUt2VMNyNh04fNACb-25" value="if item_amount = amount" style="html=1;whiteSpace=wrap;" vertex="1" parent="1">
          <mxGeometry x="10" y="580" width="140" height="30" as="geometry" />
        </mxCell>
        <mxCell id="FTDdUt2VMNyNh04fNACb-26" value=":ShipmentDAO" style="shape=umlLifeline;perimeter=lifelinePerimeter;whiteSpace=wrap;html=1;container=0;dropTarget=0;collapsible=0;recursiveResize=0;outlineConnect=0;portConstraint=eastwest;newEdgeStyle={&quot;edgeStyle&quot;:&quot;elbowEdgeStyle&quot;,&quot;elbow&quot;:&quot;vertical&quot;,&quot;curved&quot;:0,&quot;rounded&quot;:0};" vertex="1" parent="1">
          <mxGeometry x="1040" y="40" width="100" height="1630" as="geometry" />
        </mxCell>
        <mxCell id="FTDdUt2VMNyNh04fNACb-27" value="" style="html=1;points=[];perimeter=orthogonalPerimeter;outlineConnect=0;targetShapes=umlLifeline;portConstraint=eastwest;newEdgeStyle={&quot;edgeStyle&quot;:&quot;elbowEdgeStyle&quot;,&quot;elbow&quot;:&quot;vertical&quot;,&quot;curved&quot;:0,&quot;rounded&quot;:0};" vertex="1" parent="FTDdUt2VMNyNh04fNACb-26">
          <mxGeometry x="45" y="80" width="10" height="1500" as="geometry" />
        </mxCell>
        <mxCell id="FTDdUt2VMNyNh04fNACb-28" value="DataBase" style="shape=umlLifeline;perimeter=lifelinePerimeter;whiteSpace=wrap;html=1;container=0;dropTarget=0;collapsible=0;recursiveResize=0;outlineConnect=0;portConstraint=eastwest;newEdgeStyle={&quot;edgeStyle&quot;:&quot;elbowEdgeStyle&quot;,&quot;elbow&quot;:&quot;vertical&quot;,&quot;curved&quot;:0,&quot;rounded&quot;:0};" vertex="1" parent="1">
          <mxGeometry x="1260" y="40" width="100" height="1630" as="geometry" />
        </mxCell>
        <mxCell id="FTDdUt2VMNyNh04fNACb-29" value="" style="html=1;points=[];perimeter=orthogonalPerimeter;outlineConnect=0;targetShapes=umlLifeline;portConstraint=eastwest;newEdgeStyle={&quot;edgeStyle&quot;:&quot;elbowEdgeStyle&quot;,&quot;elbow&quot;:&quot;vertical&quot;,&quot;curved&quot;:0,&quot;rounded&quot;:0};" vertex="1" parent="FTDdUt2VMNyNh04fNACb-28">
          <mxGeometry x="45" y="80" width="10" height="1510" as="geometry" />
        </mxCell>
        <mxCell id="FTDdUt2VMNyNh04fNACb-30" value="removeItem(item)" style="html=1;verticalAlign=bottom;endArrow=block;edgeStyle=elbowEdgeStyle;elbow=vertical;curved=0;rounded=0;" edge="1" parent="1">
          <mxGeometry relative="1" as="geometry">
            <mxPoint x="50" y="630.29" as="sourcePoint" />
            <Array as="points">
              <mxPoint x="165" y="630.29" />
            </Array>
            <mxPoint x="280" y="630" as="targetPoint" />
          </mxGeometry>
        </mxCell>
        <mxCell id="FTDdUt2VMNyNh04fNACb-72" value=":ShippingDocumentDAO" style="shape=umlLifeline;perimeter=lifelinePerimeter;whiteSpace=wrap;html=1;container=0;dropTarget=0;collapsible=0;recursiveResize=0;outlineConnect=0;portConstraint=eastwest;newEdgeStyle={&quot;edgeStyle&quot;:&quot;elbowEdgeStyle&quot;,&quot;elbow&quot;:&quot;vertical&quot;,&quot;curved&quot;:0,&quot;rounded&quot;:0};" vertex="1" parent="1">
          <mxGeometry x="810" y="40" width="140" height="1630" as="geometry" />
        </mxCell>
        <mxCell id="FTDdUt2VMNyNh04fNACb-73" value="" style="html=1;points=[];perimeter=orthogonalPerimeter;outlineConnect=0;targetShapes=umlLifeline;portConstraint=eastwest;newEdgeStyle={&quot;edgeStyle&quot;:&quot;elbowEdgeStyle&quot;,&quot;elbow&quot;:&quot;vertical&quot;,&quot;curved&quot;:0,&quot;rounded&quot;:0};" vertex="1" parent="FTDdUt2VMNyNh04fNACb-72">
          <mxGeometry x="65" y="80" width="10" height="1490" as="geometry" />
        </mxCell>
        <mxCell id="FTDdUt2VMNyNh04fNACb-74" value="ShippingDocument" style="shape=umlLifeline;perimeter=lifelinePerimeter;whiteSpace=wrap;html=1;container=0;dropTarget=0;collapsible=0;recursiveResize=0;outlineConnect=0;portConstraint=eastwest;newEdgeStyle={&quot;edgeStyle&quot;:&quot;elbowEdgeStyle&quot;,&quot;elbow&quot;:&quot;vertical&quot;,&quot;curved&quot;:0,&quot;rounded&quot;:0};" vertex="1" parent="1">
          <mxGeometry x="630" y="40" width="130" height="1630" as="geometry" />
        </mxCell>
        <mxCell id="FTDdUt2VMNyNh04fNACb-75" value="" style="html=1;points=[];perimeter=orthogonalPerimeter;outlineConnect=0;targetShapes=umlLifeline;portConstraint=eastwest;newEdgeStyle={&quot;edgeStyle&quot;:&quot;elbowEdgeStyle&quot;,&quot;elbow&quot;:&quot;vertical&quot;,&quot;curved&quot;:0,&quot;rounded&quot;:0};" vertex="1" parent="FTDdUt2VMNyNh04fNACb-74">
          <mxGeometry x="60" y="80" width="10" height="1500" as="geometry" />
        </mxCell>
        <mxCell id="FTDdUt2VMNyNh04fNACb-90" value="" style="endArrow=none;dashed=1;html=1;rounded=0;" edge="1" parent="1">
          <mxGeometry width="50" height="50" relative="1" as="geometry">
            <mxPoint x="-30" y="350" as="sourcePoint" />
            <mxPoint x="810" y="350" as="targetPoint" />
          </mxGeometry>
        </mxCell>
        <mxCell id="FTDdUt2VMNyNh04fNACb-91" value="changeAmount(item_amount)" style="html=1;verticalAlign=bottom;endArrow=block;edgeStyle=elbowEdgeStyle;elbow=horizontal;curved=0;rounded=0;" edge="1" parent="1">
          <mxGeometry relative="1" as="geometry">
            <mxPoint x="2540" y="1070.29" as="sourcePoint" />
            <Array as="points">
              <mxPoint x="2655" y="1070.29" />
            </Array>
            <mxPoint x="2740" y="1070" as="targetPoint" />
          </mxGeometry>
        </mxCell>
        <mxCell id="FTDdUt2VMNyNh04fNACb-92" value="Update(Shipment)" style="html=1;verticalAlign=bottom;endArrow=block;edgeStyle=elbowEdgeStyle;elbow=horizontal;curved=0;rounded=0;" edge="1" parent="1">
          <mxGeometry relative="1" as="geometry">
            <mxPoint x="2305" y="1110" as="sourcePoint" />
            <Array as="points">
              <mxPoint x="2760" y="1110" />
              <mxPoint x="2665" y="1090.29" />
            </Array>
            <mxPoint x="3320" y="1110" as="targetPoint" />
          </mxGeometry>
        </mxCell>
        <mxCell id="FTDdUt2VMNyNh04fNACb-93" value="alt" style="shape=umlFrame;whiteSpace=wrap;html=1;pointerEvents=0;" vertex="1" parent="1">
          <mxGeometry x="2280" y="1080" width="1490" height="140" as="geometry" />
        </mxCell>
        <mxCell id="FTDdUt2VMNyNh04fNACb-94" value="exception" style="html=1;verticalAlign=bottom;endArrow=open;dashed=1;endSize=8;edgeStyle=elbowEdgeStyle;elbow=vertical;curved=0;rounded=0;" edge="1" parent="1">
          <mxGeometry x="0.0044" relative="1" as="geometry">
            <mxPoint x="3325" y="1160" as="targetPoint" />
            <Array as="points">
              <mxPoint x="3440" y="1160" />
              <mxPoint x="3345" y="1150" />
              <mxPoint x="3385" y="1160" />
              <mxPoint x="3445" y="1270" />
            </Array>
            <mxPoint x="3525" y="1160" as="sourcePoint" />
            <mxPoint as="offset" />
          </mxGeometry>
        </mxCell>
        <mxCell id="FTDdUt2VMNyNh04fNACb-95" value="false" style="html=1;verticalAlign=bottom;endArrow=open;dashed=1;endSize=8;edgeStyle=elbowEdgeStyle;elbow=vertical;curved=0;rounded=0;" edge="1" parent="1">
          <mxGeometry x="0.0044" relative="1" as="geometry">
            <mxPoint x="2310" y="1170" as="targetPoint" />
            <Array as="points">
              <mxPoint x="2330" y="1170" />
              <mxPoint x="2520" y="1160" />
              <mxPoint x="2560" y="1170" />
              <mxPoint x="2620" y="1280" />
            </Array>
            <mxPoint x="3320" y="1170" as="sourcePoint" />
            <mxPoint as="offset" />
          </mxGeometry>
        </mxCell>
        <mxCell id="FTDdUt2VMNyNh04fNACb-96" value="true" style="html=1;verticalAlign=bottom;endArrow=open;dashed=1;endSize=8;edgeStyle=elbowEdgeStyle;elbow=vertical;curved=0;rounded=0;" edge="1" parent="1">
          <mxGeometry x="0.0044" relative="1" as="geometry">
            <mxPoint x="2310" y="1210" as="targetPoint" />
            <Array as="points">
              <mxPoint x="2615" y="1210" />
              <mxPoint x="2520" y="1200" />
              <mxPoint x="2560" y="1210" />
              <mxPoint x="2620" y="1320" />
            </Array>
            <mxPoint x="3320" y="1210" as="sourcePoint" />
            <mxPoint as="offset" />
          </mxGeometry>
        </mxCell>
        <mxCell id="FTDdUt2VMNyNh04fNACb-97" value="" style="endArrow=none;dashed=1;html=1;rounded=0;" edge="1" parent="1">
          <mxGeometry width="50" height="50" relative="1" as="geometry">
            <mxPoint x="2300" y="1190" as="sourcePoint" />
            <mxPoint x="3535" y="1190" as="targetPoint" />
          </mxGeometry>
        </mxCell>
        <mxCell id="FTDdUt2VMNyNh04fNACb-98" value="if shipment not found&amp;nbsp;" style="html=1;whiteSpace=wrap;" vertex="1" parent="1">
          <mxGeometry x="2280" y="1110" width="140" height="30" as="geometry" />
        </mxCell>
        <mxCell id="FTDdUt2VMNyNh04fNACb-99" value="update()" style="html=1;verticalAlign=bottom;endArrow=block;edgeStyle=elbowEdgeStyle;elbow=horizontal;curved=0;rounded=0;" edge="1" parent="1">
          <mxGeometry x="0.4824" relative="1" as="geometry">
            <mxPoint x="3530" y="1140" as="sourcePoint" />
            <Array as="points">
              <mxPoint x="3322.5" y="1140.58" />
              <mxPoint x="3227.5" y="1120.87" />
            </Array>
            <mxPoint x="3540" y="1140" as="targetPoint" />
            <mxPoint x="-1" as="offset" />
          </mxGeometry>
        </mxCell>
        <mxCell id="FTDdUt2VMNyNh04fNACb-100" value="getDoc(current_site)" style="html=1;verticalAlign=bottom;endArrow=block;edgeStyle=elbowEdgeStyle;elbow=horizontal;curved=0;rounded=0;" edge="1" parent="1">
          <mxGeometry relative="1" as="geometry">
            <mxPoint x="50" y="670.29" as="sourcePoint" />
            <Array as="points">
              <mxPoint x="165" y="670.29" />
            </Array>
            <mxPoint x="290" y="670" as="targetPoint" />
          </mxGeometry>
        </mxCell>
        <mxCell id="FTDdUt2VMNyNh04fNACb-101" value="currDoc" style="html=1;verticalAlign=bottom;endArrow=open;dashed=1;endSize=8;edgeStyle=elbowEdgeStyle;elbow=vertical;curved=0;rounded=0;" edge="1" parent="1">
          <mxGeometry x="0.0044" relative="1" as="geometry">
            <mxPoint x="59.93" y="700" as="targetPoint" />
            <Array as="points">
              <mxPoint x="280.93" y="700" />
              <mxPoint x="280.93" y="690" />
              <mxPoint x="320.93" y="700" />
              <mxPoint x="380.93" y="810" />
            </Array>
            <mxPoint x="295.93" y="700" as="sourcePoint" />
            <mxPoint as="offset" />
          </mxGeometry>
        </mxCell>
        <mxCell id="FTDdUt2VMNyNh04fNACb-102" value="removeItemFromDoc(item)" style="html=1;verticalAlign=bottom;endArrow=block;edgeStyle=elbowEdgeStyle;elbow=horizontal;curved=0;rounded=0;" edge="1" parent="1">
          <mxGeometry x="0.0018" relative="1" as="geometry">
            <mxPoint x="60.00000000000001" y="740" as="sourcePoint" />
            <Array as="points">
              <mxPoint x="165" y="740.29" />
            </Array>
            <mxPoint x="690" y="740" as="targetPoint" />
            <mxPoint as="offset" />
          </mxGeometry>
        </mxCell>
        <mxCell id="FTDdUt2VMNyNh04fNACb-106" value="updateQuantity(item_amount)" style="html=1;verticalAlign=bottom;endArrow=block;edgeStyle=elbowEdgeStyle;elbow=horizontal;curved=0;rounded=0;" edge="1" parent="1" target="FTDdUt2VMNyNh04fNACb-6">
          <mxGeometry relative="1" as="geometry">
            <mxPoint x="50" y="860.29" as="sourcePoint" />
            <Array as="points">
              <mxPoint x="165" y="860.29" />
            </Array>
            <mxPoint x="290" y="860" as="targetPoint" />
          </mxGeometry>
        </mxCell>
        <mxCell id="FTDdUt2VMNyNh04fNACb-109" value="alt" style="shape=umlFrame;whiteSpace=wrap;html=1;pointerEvents=0;" vertex="1" parent="1">
          <mxGeometry x="30" y="810" width="490" height="230" as="geometry" />
        </mxCell>
        <mxCell id="FTDdUt2VMNyNh04fNACb-110" value="" style="endArrow=none;dashed=1;html=1;rounded=0;exitX=-0.002;exitY=0.308;exitDx=0;exitDy=0;exitPerimeter=0;" edge="1" parent="1">
          <mxGeometry width="50" height="50" relative="1" as="geometry">
            <mxPoint x="29" y="914.29" as="sourcePoint" />
            <mxPoint x="480" y="915" as="targetPoint" />
          </mxGeometry>
        </mxCell>
        <mxCell id="FTDdUt2VMNyNh04fNACb-114" value="" style="endArrow=none;dashed=1;html=1;rounded=0;exitX=0.002;exitY=0.391;exitDx=0;exitDy=0;exitPerimeter=0;" edge="1" parent="1" source="FTDdUt2VMNyNh04fNACb-24" target="FTDdUt2VMNyNh04fNACb-74">
          <mxGeometry width="50" height="50" relative="1" as="geometry">
            <mxPoint x="9" y="722" as="sourcePoint" />
            <mxPoint x="695" y="722" as="targetPoint" />
            <Array as="points">
              <mxPoint x="400" y="770" />
            </Array>
          </mxGeometry>
        </mxCell>
        <mxCell id="FTDdUt2VMNyNh04fNACb-117" value="if item_amount &amp;gt; amount" style="html=1;whiteSpace=wrap;" vertex="1" parent="1">
          <mxGeometry x="30" y="835" width="150" height="25" as="geometry" />
        </mxCell>
        <mxCell id="FTDdUt2VMNyNh04fNACb-118" value="WrontQuantity exception" style="html=1;verticalAlign=bottom;endArrow=open;dashed=1;endSize=8;edgeStyle=elbowEdgeStyle;elbow=vertical;curved=0;rounded=0;" edge="1" parent="1">
          <mxGeometry x="0.0044" relative="1" as="geometry">
            <mxPoint x="-190" y="970" as="targetPoint" />
            <Array as="points">
              <mxPoint x="31" y="970" />
              <mxPoint x="31" y="960" />
              <mxPoint x="71" y="970" />
              <mxPoint x="131" y="1080" />
            </Array>
            <mxPoint x="46" y="970" as="sourcePoint" />
            <mxPoint as="offset" />
          </mxGeometry>
        </mxCell>
      </root>
    </mxGraphModel>
  </diagram>
</mxfile>
